<svg viewBox="0 0 100 100" xmlns="http://www.w3.org/2000/svg"><symbol viewBox="0 0 1792 1792" id="i-cart"><title>cart</title><path d="M1280 704q0-26-19-45t-45-19-45 19l-147 146v-293q0-26-19-45t-45-19-45 19-19 45v293l-147-146q-19-19-45-19t-45 19-19 45 19 45l256 256q19 19 45 19t45-19l256-256q19-19 19-45zm-640 832q0 53-37.5 90.5t-90.5 37.5-90.5-37.5-37.5-90.5 37.5-90.5 90.5-37.5 90.5 37.5 37.5 90.5zm896 0q0 53-37.5 90.5t-90.5 37.5-90.5-37.5-37.5-90.5 37.5-90.5 90.5-37.5 90.5 37.5 37.5 90.5zm128-1088v512q0 24-16 42.5t-41 21.5l-1044 122q1 7 4.5 21.5t6 26.5 2.5 22q0 16-24 64h920q26 0 45 19t19 45-19 45-45 19h-1024q-26 0-45-19t-19-45q0-14 11-39.5t29.5-59.5 20.5-38l-177-823h-204q-26 0-45-19t-19-45 19-45 45-19h256q16 0 28.5 6.5t20 15.5 13 24.5 7.5 26.5 5.5 29.5 4.5 25.5h1201q26 0 45 19t19 45z"/></symbol><symbol viewBox="0 0 1792 1792" id="i-check"><title>check</title><path d="M1671 566q0 40-28 68l-724 724-136 136q-28 28-68 28t-68-28l-136-136-362-362q-28-28-28-68t28-68l136-136q28-28 68-28t68 28l294 295 656-657q28-28 68-28t68 28l136 136q28 28 28 68z"/></symbol><symbol viewBox="0 0 1792 1792" id="i-plus"><title>plus</title><path d="M1600 736v192q0 40-28 68t-68 28h-416v416q0 40-28 68t-68 28h-192q-40 0-68-28t-28-68v-416h-416q-40 0-68-28t-28-68v-192q0-40 28-68t68-28h416v-416q0-40 28-68t68-28h192q40 0 68 28t28 68v416h416q40 0 68 28t28 68z"/></symbol></svg>